<?xml version="1.0" standalone="no"?>
<!DOCTYPE svg PUBLIC "-//W3C//DTD SVG 20010904//EN"
 "http://www.w3.org/TR/2001/REC-SVG-20010904/DTD/svg10.dtd">
<svg version="1.0" xmlns="http://www.w3.org/2000/svg"
 width="284.000000pt" height="110.000000pt" viewBox="0 0 284.000000 110.000000"
 preserveAspectRatio="xMidYMid meet">
<g transform="translate(0.000000,110.000000) scale(0.100000,-0.100000)"
fill="#000000" stroke="none">
<path d="M17 1080 c-9 -4 -12 -121 -12 -512 l0 -506 65 45 c36 25 71 51 78 57
9 9 12 113 13 466 l0 454 -66 0 c-36 1 -71 -1 -78 -4z m54 -32 c0 -10 2 -10 6
0 2 6 18 12 34 12 l30 0 -6 -287 c-4 -159 -3 -351 2 -428 l8 -139 -36 -36
c-49 -48 -62 -57 -77 -52 -9 3 -12 115 -12 473 l0 469 25 0 c14 0 25 -6 26
-12z"/>
<path d="M86 204 c-5 -13 -4 -14 7 -6 8 7 18 8 22 4 5 -4 5 -1 1 6 -10 17 -23
15 -30 -4z"/>
<path d="M91 167 c-13 -21 -12 -21 5 -5 10 10 16 20 13 22 -3 3 -11 -5 -18
-17z"/>
<path d="M345 1080 c36 -66 36 -70 33 -418 -2 -238 0 -338 8 -334 5 4 42 30
82 57 l71 50 1 103 0 103 98 -2 c114 -2 179 -19 216 -55 54 -55 21 -161 -57
-182 -18 -5 -80 -10 -140 -11 l-107 -2 -90 -62 -89 -62 162 -3 c299 -5 418 24
482 116 23 33 30 56 33 106 7 113 -44 186 -153 219 -27 8 -40 15 -29 16 12 1
33 10 47 21 107 85 91 247 -32 313 l-50 28 -245 2 c-134 1 -243 0 -241 -3z
m503 -38 c2 -7 9 -12 16 -12 18 0 89 -68 82 -79 -4 -5 -2 -12 4 -16 17 -11 12
-73 -7 -85 -16 -10 -16 -11 -1 -6 14 4 15 1 6 -24 -10 -31 -62 -69 -94 -71
-11 0 -14 -3 -6 -6 10 -4 10 -8 1 -19 -16 -19 5 -44 37 -44 13 0 24 -4 24 -10
0 -5 -8 -7 -17 -3 -15 5 -16 3 -6 -7 10 -11 15 -11 28 0 8 7 15 8 15 2 0 -5 9
-12 21 -15 12 -3 18 -10 14 -16 -3 -7 0 -8 9 -5 9 4 16 1 16 -6 0 -7 8 -18 17
-25 15 -11 15 -15 4 -29 -7 -9 -18 -13 -25 -9 -6 3 -8 3 -4 -1 3 -4 8 -6 11
-4 2 1 11 -3 20 -11 22 -18 22 -59 0 -84 -10 -11 -13 -17 -6 -14 8 5 11 0 10
-12 -1 -15 -4 -17 -14 -9 -10 8 -12 7 -7 -6 4 -10 1 -16 -7 -16 -7 0 -9 -3 -6
-6 9 -9 -11 -44 -25 -44 -6 0 -19 -7 -29 -16 -34 -31 -126 -44 -291 -43 -146
1 -198 9 -147 22 14 4 18 10 13 19 -4 7 -4 10 1 6 4 -4 15 -2 23 5 13 10 15 9
8 -3 -4 -8 0 -6 9 5 14 17 33 21 138 27 141 8 147 8 147 20 0 5 4 7 9 3 11 -6
53 45 59 73 16 75 -6 132 -64 162 -16 8 -32 20 -36 25 -5 6 -8 5 -8 -3 0 -10
-5 -10 -20 -2 -11 6 -25 8 -30 5 -6 -3 -10 -1 -10 5 0 6 -4 9 -8 6 -5 -3 -50
-2 -100 2 -70 6 -91 5 -89 -5 1 -6 -7 -19 -18 -27 -11 -9 -14 -16 -7 -16 8 0
12 -23 12 -80 0 -69 -2 -80 -17 -81 -16 -1 -16 -2 0 -6 15 -4 12 -10 -20 -32
-42 -30 -73 -44 -73 -33 0 4 -3 148 -5 320 -3 173 -9 321 -14 330 -8 16 9 17
222 16 166 0 232 -4 235 -12z"/>
<path d="M775 1040 c-3 -6 1 -7 9 -4 18 7 21 14 7 14 -6 0 -13 -4 -16 -10z"/>
<path d="M534 965 c-24 -24 -25 -31 -23 -120 3 -108 6 -112 99 -118 30 -2 64
-7 75 -11 16 -6 17 -6 5 4 -13 9 -12 10 5 7 23 -4 74 19 93 42 11 14 11 14 6
-4 -5 -18 -5 -18 6 -2 6 9 17 14 23 11 7 -4 9 -4 5 1 -4 4 -3 17 3 28 6 10 12
39 14 63 3 34 -1 48 -20 68 -13 14 -32 26 -42 26 -15 0 -16 2 -3 10 11 8 5 9
-22 7 -21 -3 -38 0 -38 4 0 5 -36 9 -80 9 -73 0 -83 -2 -106 -25z m262 -38
c34 -40 32 -90 -4 -127 -36 -36 -87 -50 -179 -50 l-73 0 0 106 0 106 116 -4
c112 -3 117 -4 140 -31z"/>
<path d="M901 964 c12 -13 26 -21 31 -18 11 7 1 19 -15 19 -7 1 -11 6 -10 11
1 6 -5 11 -13 11 -11 0 -9 -6 7 -23z"/>
<path d="M861 924 c0 -11 3 -14 6 -6 3 7 2 16 -1 19 -3 4 -6 -2 -5 -13z"/>
<path d="M875 829 c-4 -6 -5 -12 -2 -15 2 -3 7 2 10 11 7 17 1 20 -8 4z"/>
<path d="M485 770 c-3 -6 1 -7 9 -4 18 7 21 14 7 14 -6 0 -13 -4 -16 -10z"/>
<path d="M738 683 c7 -3 16 -2 19 1 4 3 -2 6 -13 5 -11 0 -14 -3 -6 -6z"/>
<path d="M470 430 c-9 -6 -10 -10 -3 -10 6 0 15 5 18 10 8 12 4 12 -15 0z"/>
<path d="M955 381 c-3 -5 -2 -12 3 -15 5 -3 9 1 9 9 0 17 -3 19 -12 6z"/>
<path d="M510 310 c-9 -6 -10 -10 -3 -10 6 0 15 5 18 10 8 12 4 12 -15 0z"/>
<path d="M1142 1047 c18 -36 19 -58 16 -383 -2 -189 -2 -344 0 -344 2 0 20 13
40 28 20 16 57 43 80 60 l44 30 -2 263 -1 262 93 -6 c154 -9 227 -48 275 -145
23 -48 28 -70 28 -137 0 -102 -22 -160 -80 -214 -53 -49 -122 -71 -225 -71
l-76 0 -89 -63 -90 -62 155 -3 c327 -6 452 44 537 216 37 75 38 78 38 191 0
97 -4 125 -23 173 -32 80 -107 160 -189 200 -72 35 -69 35 -399 41 l-152 2 20
-38z m388 13 c25 -6 55 -13 68 -15 13 -3 21 -9 18 -14 -3 -4 8 -7 24 -6 17 1
31 -4 34 -12 3 -8 10 -12 14 -9 12 7 56 -40 48 -52 -3 -5 1 -9 9 -9 8 0 11 5
8 11 -3 6 6 0 21 -14 14 -13 24 -30 21 -38 -3 -8 0 -10 7 -6 8 5 9 2 5 -9 -3
-10 -2 -17 3 -17 5 0 19 -18 30 -41 18 -34 19 -43 8 -57 -11 -13 -11 -14 1 -8
10 7 12 4 7 -12 -4 -11 -3 -23 2 -26 13 -8 12 -88 -2 -105 -8 -11 -8 -13 2 -7
6 4 12 2 12 -3 0 -6 -4 -11 -8 -11 -4 0 -8 -16 -9 -36 -1 -36 -31 -104 -45
-104 -5 0 -8 -9 -8 -21 0 -11 -4 -17 -10 -14 -5 3 -10 2 -10 -2 0 -5 -16 -26
-36 -47 -27 -29 -38 -35 -49 -26 -10 8 -15 8 -21 -1 -4 -8 -3 -9 4 -5 7 4 12
2 12 -5 0 -6 -8 -9 -20 -6 -11 3 -18 0 -17 -7 1 -6 -4 -10 -11 -8 -7 1 -27 -5
-44 -14 -22 -11 -44 -14 -77 -10 -30 5 -41 4 -32 -3 10 -6 3 -8 -20 -6 -19 2
-76 4 -126 4 -61 1 -93 5 -93 12 0 6 7 8 15 5 9 -3 18 1 22 10 3 9 12 13 21 9
12 -4 13 -3 3 9 -11 13 -9 15 8 11 13 -2 18 1 15 9 -4 10 17 14 92 15 54 1
106 7 116 12 10 5 24 7 30 3 7 -4 8 -3 4 4 -8 13 20 12 42 -2 12 -7 12 -4 1
15 -11 22 -11 23 4 10 10 -7 18 -10 18 -5 1 5 2 15 3 22 0 7 6 16 12 20 6 4
16 16 23 27 11 18 12 18 7 1 -5 -15 -4 -17 8 -7 8 7 12 21 8 33 -3 13 -1 19 5
15 5 -3 18 10 27 30 15 31 15 35 2 24 -10 -8 -16 -9 -16 -3 0 6 4 13 10 17 5
3 7 12 4 19 -3 8 -1 17 5 20 6 4 8 22 5 43 -4 25 -2 33 6 28 9 -6 9 -2 0 15
-7 12 -10 35 -8 51 3 22 1 26 -8 18 -8 -7 -12 -6 -11 3 1 35 -4 49 -15 42 -7
-5 -9 -2 -6 8 4 9 -4 26 -18 41 -24 26 -32 43 -16 33 5 -3 9 2 9 10 0 9 -4 11
-10 5 -6 -6 -21 -3 -42 9 -18 10 -36 16 -39 13 -3 -4 -6 -1 -6 4 0 6 -18 14
-40 18 -22 4 -40 10 -40 13 0 4 -34 8 -76 10 -58 2 -74 -1 -68 -10 6 -10 4
-11 -7 0 -41 38 -49 -10 -49 -288 0 -228 -1 -249 -17 -243 -12 5 -14 3 -8 -7
6 -10 3 -12 -14 -7 -18 4 -20 3 -11 -8 10 -11 8 -13 -9 -10 -15 3 -18 0 -14
-13 3 -9 2 -14 -2 -9 -5 4 -17 -1 -27 -10 -18 -16 -18 -8 -16 315 2 183 0 332
-4 332 -5 0 -8 6 -8 13 0 9 32 11 134 9 83 -3 141 0 153 7 22 13 18 13 73 1z"/>
<path d="M1485 1050 c3 -5 8 -10 11 -10 2 0 4 5 4 10 0 6 -5 10 -11 10 -5 0
-7 -4 -4 -10z"/>
<path d="M1684 989 c-4 -7 -3 -9 4 -5 5 3 13 0 15 -6 4 -9 6 -10 6 -1 1 17
-16 25 -25 12z"/>
<path d="M1215 451 c-3 -5 -2 -12 3 -15 5 -3 9 1 9 9 0 17 -3 19 -12 6z"/>
<path d="M1663 425 c0 -8 4 -12 9 -9 5 3 6 10 3 15 -9 13 -12 11 -12 -6z"/>
<path d="M1333 315 c0 -8 4 -12 9 -9 5 3 6 10 3 15 -9 13 -12 11 -12 -6z"/>
<path d="M2280 1080 c-194 -46 -311 -196 -311 -400 -1 -212 97 -347 290 -404
66 -19 210 -22 271 -6 120 32 218 109 267 208 25 51 28 69 31 182 4 151 -13
210 -85 290 -85 95 -198 141 -341 139 -48 -1 -103 -5 -122 -9z m102 -25 c5 -6
8 -6 8 2 0 8 16 11 48 9 69 -5 108 -16 171 -47 86 -43 87 -44 70 -65 -12 -16
-12 -17 1 -9 21 13 40 15 40 4 0 -18 4 -24 32 -54 15 -16 28 -33 28 -37 0 -4
5 -19 12 -35 13 -32 14 -42 21 -138 4 -54 3 -60 -3 -25 -7 38 -8 34 -6 -28 2
-40 -1 -75 -6 -78 -5 -4 -7 -13 -4 -21 4 -9 2 -11 -6 -7 -7 5 -9 0 -5 -15 3
-12 0 -27 -7 -34 -7 -6 -15 -20 -19 -31 -5 -12 -13 -16 -25 -11 -13 5 -14 3
-5 -6 8 -8 3 -18 -22 -40 -18 -16 -39 -29 -46 -29 -11 0 -11 2 1 10 8 5 11 10
5 10 -5 0 -17 -5 -25 -10 -10 -6 -11 -10 -2 -10 25 0 11 -20 -15 -20 -19 0
-24 -3 -15 -8 8 -6 -8 -13 -45 -22 -32 -7 -62 -16 -68 -20 -5 -3 -25 -7 -44
-9 -24 -2 -31 1 -26 9 6 9 2 9 -14 1 -22 -12 -101 -11 -101 1 0 4 -6 5 -12 3
-7 -3 -38 4 -68 15 -30 11 -45 18 -32 16 12 -2 20 -1 17 4 -3 4 -21 11 -40 14
-23 5 -52 22 -78 48 -23 23 -37 39 -31 35 6 -3 11 0 11 8 0 7 -8 12 -18 10
-12 -3 -16 1 -12 11 3 8 1 14 -4 14 -11 0 -36 50 -29 58 3 2 0 14 -6 26 -6 12
-11 67 -11 126 0 114 13 160 54 200 13 13 17 19 9 15 -12 -7 -13 -6 -3 7 7 8
9 19 5 23 -4 5 -1 5 6 1 7 -4 12 -1 12 8 0 8 14 25 32 37 18 13 28 17 24 8 -4
-7 1 -4 11 7 23 27 53 42 76 39 9 -2 15 0 12 5 -8 12 84 39 125 36 8 -1 18 -5
22 -11z"/>
<path d="M2298 1043 c6 -2 18 -2 25 0 6 3 1 5 -13 5 -14 0 -19 -2 -12 -5z"/>
<path d="M2283 983 c0 -9 6 -9 21 -1 30 15 30 16 3 14 -13 0 -24 -6 -24 -13z"/>
<path d="M2316 977 c-21 -10 -47 -19 -57 -20 -10 -1 -16 -3 -14 -5 6 -7 -68
-67 -79 -64 -5 2 -3 -5 5 -14 9 -12 9 -15 2 -10 -8 4 -13 2 -13 -8 0 -8 -8
-20 -17 -25 -11 -6 -13 -11 -5 -11 7 0 10 -5 7 -10 -4 -6 -11 -7 -17 -4 -7 4
-8 2 -4 -4 4 -6 4 -42 0 -79 -5 -47 -10 -61 -15 -48 -4 11 -8 14 -8 7 -1 -7 4
-23 10 -34 6 -11 11 -36 11 -54 0 -21 4 -32 11 -27 6 3 7 1 3 -5 -11 -19 62
-140 76 -126 3 2 11 -2 18 -11 11 -13 10 -15 -6 -10 -10 3 -7 -1 9 -8 15 -7
24 -17 20 -22 -5 -4 -3 -5 3 -2 7 4 24 1 39 -7 72 -37 196 -25 260 26 16 13
26 17 22 11 -4 -6 -3 -15 3 -18 6 -4 10 -3 9 2 -3 18 2 29 27 58 28 32 64 106
64 132 0 9 8 22 18 30 9 8 11 11 3 7 -9 -4 -12 -3 -7 4 3 6 2 22 -4 36 -8 22
-7 26 8 26 14 0 15 2 2 10 -8 5 -15 25 -16 45 -2 23 1 33 8 29 7 -4 8 -2 4 5
-4 6 -11 9 -16 6 -5 -3 -12 9 -15 27 -4 18 -14 42 -21 54 -8 11 -11 24 -7 28
4 4 0 4 -10 1 -12 -5 -20 0 -28 18 -6 14 -20 28 -31 30 -13 4 -17 10 -12 19 6
10 4 10 -9 -1 -12 -9 -17 -10 -17 -2 0 7 -4 9 -10 6 -5 -3 -10 -2 -10 4 0 5 6
11 13 14 6 2 0 4 -15 4 -15 0 -25 -3 -22 -8 3 -5 -2 -6 -10 -3 -9 3 -16 9 -16
13 0 15 -107 6 -144 -12z m167 -21 c116 -42 177 -137 179 -276 1 -184 -102
-300 -266 -300 -60 0 -138 34 -178 76 -53 57 -73 119 -73 224 1 83 4 101 27
145 14 28 39 63 56 78 61 58 174 81 255 53z"/>
<path d="M2576 532 c-3 -5 1 -9 9 -9 8 0 12 4 9 9 -3 4 -7 8 -9 8 -2 0 -6 -4
-9 -8z"/>
<path d="M2141 957 c-8 -10 -7 -14 2 -14 8 0 14 6 14 14 0 7 -1 13 -2 13 -2 0
-8 -6 -14 -13z"/>
<path d="M2092 800 c0 -14 2 -19 5 -12 2 6 2 18 0 25 -3 6 -5 1 -5 -13z"/>
<path d="M2091 724 c0 -11 3 -14 6 -6 3 7 2 16 -1 19 -3 4 -6 -2 -5 -13z"/>
<path d="M2091 564 c0 -11 3 -14 6 -6 3 7 2 16 -1 19 -3 4 -6 -2 -5 -13z"/>
<path d="M2170 436 c0 -2 8 -10 18 -17 15 -13 16 -12 3 4 -13 16 -21 21 -21
13z"/>
<path d="M2611 426 c-7 -8 -8 -17 -3 -20 6 -3 15 1 21 8 7 8 8 17 3 20 -6 3
-15 -1 -21 -8z"/>
<path d="M2174 393 c2 -9 8 -18 15 -19 6 -1 7 0 1 3 -5 2 -8 9 -5 13 3 5 1 11
-4 14 -5 4 -8 -2 -7 -11z"/>
<path d="M2136 368 c3 -5 10 -6 15 -3 13 9 11 12 -6 12 -8 0 -12 -4 -9 -9z"/>
<path d="M1021 687 c-8 -10 -7 -14 2 -14 8 0 14 6 14 14 0 7 -1 13 -2 13 -2 0
-8 -6 -14 -13z"/>
<path d="M1009 323 c-13 -16 -12 -17 4 -4 16 13 21 21 13 21 -2 0 -10 -8 -17
-17z"/>
<path d="M116 85 c-44 -30 -85 -60 -92 -67 -11 -11 250 -13 1396 -13 l1410 0
0 68 0 67 -1317 0 -1318 0 -79 -55z m109 25 c-3 -5 -1 -12 5 -15 6 -4 9 -1 8
7 -3 11 221 13 1279 16 l1281 2 4 -50 3 -50 -1362 0 c-750 0 -1363 3 -1363 8
0 10 61 46 83 48 10 1 21 5 25 9 4 5 -1 5 -11 2 -11 -4 -16 -3 -12 3 3 6 13
10 21 10 8 0 13 4 10 8 -2 4 4 9 15 9 11 1 17 -2 14 -7z"/>
</g>
</svg>
